<svg width="40" height="40" viewBox="0 0 40 40" fill="none" xmlns="http://www.w3.org/2000/svg">
<rect x="3" y="3" width="35" height="35" fill="white"/>
<path d="M38.4 0H1.6C0.715 0 0 0.714996 0 1.59999V38.3998C0 39.2848 0.715 39.9998 1.6 39.9998H38.4C39.285 39.9998 40 39.2848 40 38.3998V1.59999C40 0.714996 39.285 0 38.4 0ZM30.765 14.4849C30.78 14.7199 30.78 14.9649 30.78 15.2049C30.78 22.5449 25.19 30.9998 14.975 30.9998C11.825 30.9998 8.905 30.0848 6.445 28.5098C6.895 28.5598 7.325 28.5798 7.785 28.5798C10.385 28.5798 12.775 27.6998 14.68 26.2098C12.24 26.1598 10.19 24.5599 9.49 22.3599C10.345 22.4849 11.115 22.4849 11.995 22.2599C10.7386 22.0046 9.60938 21.3223 8.79908 20.3288C7.98879 19.3353 7.54743 18.0919 7.55 16.8099V16.7399C8.285 17.1549 9.15 17.4099 10.055 17.4449C9.29421 16.9379 8.67029 16.251 8.23856 15.4451C7.80682 14.6392 7.58062 13.7392 7.58 12.8249C7.58 11.7899 7.85 10.8449 8.335 10.0249C9.72951 11.7416 11.4697 13.1456 13.4423 14.1457C15.415 15.1459 17.576 15.7197 19.785 15.8299C19 12.0549 21.82 8.99995 25.21 8.99995C26.81 8.99995 28.25 9.66994 29.265 10.7499C30.52 10.5149 31.72 10.0449 32.79 9.41494C32.375 10.6999 31.505 11.7849 30.35 12.4699C31.47 12.3499 32.55 12.0399 33.55 11.6049C32.795 12.7149 31.85 13.6999 30.765 14.4849Z" fill="#1DA1F2"/>
</svg>
