<svg width="40" height="40" viewBox="0 0 40 40" fill="none" xmlns="http://www.w3.org/2000/svg">
<rect x="2" y="2" width="35" height="35" fill="white"/>
<path d="M34.075 34.0885H28.1588V24.8048C28.1588 22.5911 28.1125 19.7461 25.065 19.7461C21.98 19.7461 21.51 22.1473 21.51 24.6411V34.0873H15.5863V14.9986H21.2762V17.6024H21.3525C22.1475 16.0986 24.0812 14.5174 26.9662 14.5174C32.9675 14.5174 34.0812 18.4686 34.0812 23.6061V34.0873L34.075 34.0885ZM8.89375 12.3899C8.44159 12.3901 7.99385 12.301 7.57616 12.1279C7.15847 11.9548 6.77904 11.7009 6.45961 11.3809C6.14017 11.0609 5.88701 10.681 5.71463 10.263C5.54224 9.845 5.45401 9.39709 5.455 8.94494C5.45574 8.26438 5.65826 7.59933 6.03695 7.03386C6.41564 6.46839 6.9535 6.02791 7.58252 5.7681C8.21153 5.50829 8.90346 5.44082 9.57082 5.57423C10.2382 5.70763 10.851 6.03592 11.3318 6.51759C11.8126 6.99925 12.1398 7.61266 12.272 8.28025C12.4041 8.94785 12.3354 9.63965 12.0745 10.2682C11.8135 10.8967 11.3721 11.4338 10.8059 11.8114C10.2397 12.1891 9.57431 12.3904 8.89375 12.3899ZM11.8612 34.0885H5.925V14.9999H11.8612V34.0885ZM37.045 0H2.95C1.32125 0 0 1.28874 0 2.88373V37.1172C0 38.7122 1.32125 40.001 2.95 40.001H37.0387C38.665 40.001 40 38.7122 40 37.1172V2.88373C40 1.28874 38.665 0 37.0387 0H37.045Z" fill="#0077B5"/>
</svg>
