<svg width="40" height="40" viewBox="0 0 40 40" fill="none" xmlns="http://www.w3.org/2000/svg">
<rect x="2" y="3" width="35" height="35" fill="white"/>
<path d="M20 15.2374C19.0581 15.2378 18.1375 15.5174 17.3546 16.0409C16.5716 16.5644 15.9615 17.3083 15.6013 18.1786C15.2411 19.0489 15.147 20.0064 15.331 20.9301C15.515 21.8538 15.9687 22.7022 16.6348 23.3681C17.3009 24.0339 18.1495 24.4874 19.0733 24.671C19.9971 24.8546 20.9546 24.7602 21.8247 24.3997C22.6949 24.0391 23.4386 23.4287 23.9618 22.6456C24.485 21.8624 24.7643 20.9417 24.7643 19.9999C24.7633 18.7368 24.261 17.5257 23.3677 16.6327C22.4744 15.7397 21.2631 15.2379 20 15.2374ZM31.1348 11.5767C30.8924 10.9623 30.5263 10.4042 30.0592 9.93718C29.5921 9.47011 29.0341 9.104 28.4196 8.86155C26.5446 8.12138 22.0804 8.28745 20 8.28745C17.9196 8.28745 13.4598 8.11513 11.5795 8.86155C10.965 9.104 10.407 9.47011 9.93991 9.93718C9.47285 10.4042 9.10674 10.9623 8.86429 11.5767C8.125 13.4517 8.29018 17.9204 8.29018 19.999C8.29018 22.0775 8.125 26.5409 8.86786 28.4221C9.11031 29.0366 9.47642 29.5946 9.94349 30.0617C10.4106 30.5288 10.9686 30.8949 11.583 31.1373C13.458 31.8775 17.9223 31.7114 20.0036 31.7114C22.0848 31.7114 26.5429 31.8837 28.4232 31.1373C29.0376 30.8949 29.5957 30.5288 30.0628 30.0617C30.5298 29.5946 30.8959 29.0366 31.1384 28.4221C31.8839 26.5472 31.7125 22.0784 31.7125 19.9999C31.7125 17.9213 31.8839 13.4588 31.1384 11.5776L31.1348 11.5767ZM20 27.3213C18.552 27.3213 17.1364 26.8919 15.9324 26.0874C14.7284 25.2829 13.79 24.1395 13.2359 22.8016C12.6817 21.4638 12.5368 19.9918 12.8193 18.5715C13.1018 17.1513 13.799 15.8468 14.823 14.8229C15.8469 13.799 17.1514 13.1017 18.5717 12.8192C19.9919 12.5367 21.464 12.6817 22.8018 13.2358C24.1396 13.7899 25.2831 14.7283 26.0875 15.9323C26.892 17.1363 27.3214 18.5518 27.3214 19.9999C27.3226 20.9617 27.134 21.9142 26.7665 22.803C26.399 23.6918 25.8597 24.4994 25.1797 25.1795C24.4996 25.8596 23.692 26.3988 22.8032 26.7663C21.9144 27.1339 20.9618 27.3224 20 27.3213ZM27.6232 14.0803C27.2852 14.0804 26.9547 13.9804 26.6735 13.7927C26.3924 13.605 26.1732 13.3382 26.0437 13.0259C25.9143 12.7137 25.8803 12.3701 25.9461 12.0385C26.012 11.707 26.1746 11.4024 26.4136 11.1633C26.6526 10.9242 26.9571 10.7613 27.2886 10.6953C27.6201 10.6293 27.9638 10.6631 28.2761 10.7924C28.5884 10.9218 28.8554 11.1408 29.0432 11.4218C29.231 11.7029 29.3313 12.0333 29.3313 12.3714C29.3322 12.5958 29.2888 12.8183 29.2036 13.0259C29.1184 13.2336 28.993 13.4224 28.8346 13.5815C28.6763 13.7406 28.488 13.8669 28.2808 13.9531C28.0735 14.0393 27.8513 14.0837 27.6268 14.0838L27.6232 14.0803ZM35.7143 0H4.28571C3.14907 0 2.05898 0.451527 1.25526 1.25525C0.451529 2.05897 0 3.14905 0 4.28569L0 35.7141C0 36.8507 0.451529 37.9408 1.25526 38.7445C2.05898 39.5482 3.14907 39.9998 4.28571 39.9998H35.7143C36.8509 39.9998 37.941 39.5482 38.7447 38.7445C39.5485 37.9408 40 36.8507 40 35.7141V4.28569C40 3.14905 39.5485 2.05897 38.7447 1.25525C37.941 0.451527 36.8509 0 35.7143 0ZM34.1857 25.8927C34.0705 28.1811 33.5482 30.2087 31.8777 31.8748C30.2071 33.5409 28.1813 34.0739 25.8955 34.1828C23.5375 34.3159 16.4679 34.3159 14.1098 34.1828C11.8214 34.0676 9.80089 33.5444 8.12768 31.8748C6.45446 30.2052 5.92857 28.1766 5.81964 25.8927C5.68661 23.5338 5.68661 16.4633 5.81964 14.1071C5.93482 11.8187 6.45089 9.79101 8.12768 8.12495C9.80446 6.45889 11.8304 5.93211 14.1098 5.82318C16.4679 5.69014 23.5375 5.69014 25.8955 5.82318C28.1839 5.93836 30.2107 6.46157 31.8777 8.1312C33.5446 9.80083 34.0768 11.8294 34.1857 14.1178C34.3188 16.4678 34.3188 23.532 34.1857 25.8927Z" fill="url(#paint0_linear)"/>
<defs>
<linearGradient id="paint0_linear" x1="20" y1="0" x2="20" y2="39.9998" gradientUnits="userSpaceOnUse">
<stop stop-color="#6557BE"/>
<stop offset="0.491667" stop-color="#D14966"/>
<stop offset="1" stop-color="#F7944D"/>
</linearGradient>
</defs>
</svg>
